<svg width="21" height="27" viewBox="0 0 21 27" fill="none" xmlns="http://www.w3.org/2000/svg">
<g filter="url(#filter0_d_876_805)">
<path fill-rule="evenodd" clip-rule="evenodd" d="M18.4034 22.4957C18.4034 21.6213 17.6049 18.1953 16.8864 17.9647C19.5333 15.0755 19.4034 12.1355 18.084 11.0696C18.8026 3.85512 12.974 -2.02717 5.26915 2.70251C0.758307 5.47159 0.291388 10.0951 1.71613 12.0426C2.18661 12.6857 3.1389 13.7776 4.21868 15.0158C5.80813 16.8383 7.67385 18.9776 8.68584 20.4685C8.53392 20.6762 8.40556 20.8891 8.30321 21.1046C8.02023 21.7007 9.26131 24.0864 9.70047 24.324C13.3733 26.3112 18.4034 23.3701 18.4034 22.4957ZM16.0081 10.7577C14.9943 11.02 14.4486 11.7255 14.5323 12.3843C12.9408 9.24644 15.0237 4.8535 16.0081 10.7577Z" fill="#BF1F26"/>
<path d="M8.30321 21.1046L7.85154 20.8902L7.85152 20.8902L8.30321 21.1046ZM9.70047 24.324L9.93841 23.8842L9.93837 23.8842L9.70047 24.324ZM16.8864 10.6516V11.1516V10.6516ZM15.0899 13.2351L14.8013 13.6434C15.0064 13.7883 15.2871 13.7586 15.4574 13.5741C15.6276 13.3896 15.6346 13.1074 15.4737 12.9146L15.0899 13.2351ZM16.0081 10.7577L16.1333 11.2418L16.1333 11.2418L16.0081 10.7577ZM18.084 11.0696L17.7698 11.4585L18.084 11.0696ZM5.26915 2.70251L5.00757 2.27639L5.00757 2.2764L5.26915 2.70251ZM1.71613 12.0426L1.31259 12.3378L1.31259 12.3378L1.71613 12.0426ZM4.21868 15.0158L4.59551 14.6871L4.59551 14.6871L4.21868 15.0158ZM16.8864 17.9647L16.7336 18.4408C16.6781 18.423 16.6919 18.4044 16.762 18.4952C16.8229 18.5741 16.8956 18.6959 16.9756 18.863C17.1348 19.1954 17.2931 19.6435 17.4343 20.1285C17.7211 21.1142 17.9034 22.1328 17.9034 22.4957L18.4034 22.4957L18.9034 22.4957C18.9034 21.9842 18.6864 20.8525 18.3944 19.8491C18.2461 19.3394 18.0701 18.8332 17.8775 18.431C17.7816 18.2308 17.674 18.0403 17.5538 17.8844C17.4426 17.7402 17.2743 17.5641 17.0391 17.4886L16.8864 17.9647ZM18.4034 22.4957L17.9034 22.4957C17.9034 22.4356 17.9228 22.4139 17.9072 22.4425C17.8939 22.4669 17.8644 22.5103 17.809 22.5717C17.6983 22.6943 17.5201 22.8486 17.2747 23.0191C16.7865 23.3584 16.0844 23.7261 15.2652 24.0106C13.6123 24.5847 11.5992 24.7828 9.93841 23.8842L9.70047 24.324L9.46253 24.7637C11.4746 25.8524 13.8129 25.5736 15.5933 24.9553C16.4906 24.6436 17.2757 24.2363 17.8454 23.8403C18.129 23.6432 18.3724 23.4398 18.5511 23.2419C18.6404 23.1431 18.7226 23.0356 18.7848 22.9218C18.8446 22.8123 18.9034 22.665 18.9034 22.4957L18.4034 22.4957ZM8.30321 21.1046L7.85152 20.8902C7.7631 21.0765 7.75508 21.2783 7.76497 21.4357C7.77549 21.603 7.81071 21.7808 7.85744 21.9552C7.95115 22.3048 8.10626 22.6955 8.27865 23.0617C8.45178 23.4295 8.65017 23.7892 8.83825 24.0776C8.93202 24.2214 9.02786 24.3547 9.12102 24.4648C9.20367 24.5625 9.32104 24.6872 9.46257 24.7637L9.70047 24.324L9.93837 23.8842C9.9701 23.9013 9.95262 23.8995 9.88445 23.8189C9.82679 23.7508 9.75583 23.654 9.67591 23.5315C9.51663 23.2872 9.34008 22.9686 9.18343 22.6358C9.02602 22.3014 8.89647 21.9691 8.82334 21.6963C8.78666 21.5594 8.76792 21.4512 8.76301 21.373C8.75747 21.2849 8.77257 21.2818 8.7549 21.319L8.30321 21.1046ZM16.8864 10.6516L16.8864 10.1516C16.5247 10.1516 16.1887 10.1945 15.8828 10.2736L16.0081 10.7577L16.1333 11.2418C16.3521 11.1852 16.6036 11.1516 16.8864 11.1516L16.8864 10.6516ZM16.8864 17.9647L17.255 18.3025C18.6369 16.7941 19.3227 15.2409 19.4696 13.8874C19.6153 12.5457 19.2293 11.3521 18.3982 10.6807L18.084 11.0696L17.7698 11.4585C18.258 11.853 18.5967 12.6623 18.4755 13.7794C18.3555 14.8847 17.7828 16.2461 16.5177 17.627L16.8864 17.9647ZM18.084 11.0696L18.3982 10.6807C17.977 10.3404 17.4585 10.1516 16.8864 10.1516V10.6516V11.1516C17.2297 11.1516 17.5265 11.262 17.7698 11.4585L18.084 11.0696ZM18.084 11.0696L18.5815 11.1192C18.9543 7.37666 17.6344 3.91705 15.139 2.00974C12.6124 0.07862 8.99938 -0.173996 5.00757 2.27639L5.26915 2.70251L5.53073 3.12863C9.2438 0.849344 12.3975 1.17303 14.5317 2.80425C16.6971 4.45929 17.9323 7.54807 17.5864 11.02L18.084 11.0696ZM5.26915 2.70251L5.00757 2.2764C2.64892 3.7243 1.3243 5.67355 0.78631 7.54232C0.254429 9.38985 0.483659 11.2047 1.31259 12.3378L1.71613 12.0426L2.11967 11.7474C1.52386 10.9329 1.27418 9.46234 1.74728 7.81897C2.21427 6.19684 3.37853 4.4498 5.53073 3.12863L5.26915 2.70251ZM8.30321 21.1046L8.75488 21.3191C8.84253 21.1345 8.95423 20.9485 9.08938 20.7637L8.68584 20.4685L8.28229 20.1733C8.1136 20.4039 7.96859 20.6436 7.85154 20.8902L8.30321 21.1046ZM8.68584 20.4685L9.08938 20.7637C10.3503 19.0401 13.4949 17.6359 16.7656 18.4499L16.8864 17.9647L17.0071 17.4795C13.3687 16.574 9.79882 18.1002 8.28229 20.1733L8.68584 20.4685ZM1.71613 12.0426L1.31259 12.3378C1.79918 13.003 2.77048 14.1159 3.84185 15.3444L4.21868 15.0158L4.59551 14.6871C3.50732 13.4394 2.57405 12.3685 2.11967 11.7474L1.71613 12.0426ZM4.21868 15.0158L3.84185 15.3444C5.4403 17.1772 7.28131 19.2896 8.27213 20.7493L8.68584 20.4685L9.09954 20.1877C8.0664 18.6656 6.17596 16.4993 4.59551 14.6871L4.21868 15.0158ZM16.0081 10.7577L15.8828 10.2736C14.734 10.5709 13.9085 11.4416 14.0363 12.4473L14.5323 12.3843L15.0283 12.3212C14.9887 12.0094 15.2547 11.4691 16.1333 11.2418L16.0081 10.7577ZM14.5323 12.3843L14.9783 12.1581C14.6201 11.452 14.4651 10.6659 14.453 9.96742C14.4406 9.25302 14.5782 8.69931 14.7347 8.43468C14.8176 8.29443 14.8465 8.33071 14.7731 8.34325C14.6663 8.36148 14.6569 8.28336 14.7548 8.40046C14.8519 8.51665 14.9836 8.75044 15.123 9.16359C15.26 9.56951 15.3947 10.119 15.5149 10.8399L16.0081 10.7577L16.5013 10.6755C16.3754 9.92036 16.2297 9.31557 16.0705 8.8439C15.9138 8.37944 15.7337 8.01229 15.522 7.75906C15.3111 7.50675 14.9958 7.29075 14.6048 7.35751C14.2471 7.41858 14.0133 7.6898 13.8738 7.92577C13.5855 8.41357 13.4392 9.17743 13.4531 9.98471C13.4674 10.8079 13.6487 11.7476 14.0864 12.6104L14.5323 12.3843ZM15.0899 13.2351L15.4737 12.9146C15.278 12.6803 15.1139 12.4255 14.9783 12.1581L14.5323 12.3843L14.0864 12.6104C14.2533 12.9395 14.4581 13.2585 14.706 13.5555L15.0899 13.2351ZM14.5323 12.3843L14.0363 12.4473C14.0961 12.9177 14.3666 13.3363 14.8013 13.6434L15.0899 13.2351L15.3784 12.8267C15.1375 12.6565 15.0477 12.4734 15.0283 12.3212L14.5323 12.3843Z" fill="#181818"/>
</g>
<defs>
<filter id="filter0_d_876_805" x="0.5" y="0.5" width="20" height="26" filterUnits="userSpaceOnUse" color-interpolation-filters="sRGB">
<feFlood flood-opacity="0" result="BackgroundImageFix"/>
<feColorMatrix in="SourceAlpha" type="matrix" values="0 0 0 0 0 0 0 0 0 0 0 0 0 0 0 0 0 0 127 0" result="hardAlpha"/>
<feOffset dx="1" dy="1"/>
<feColorMatrix type="matrix" values="0 0 0 0 0.937255 0 0 0 0 0.937255 0 0 0 0 0.937255 0 0 0 1 0"/>
<feBlend mode="normal" in2="BackgroundImageFix" result="effect1_dropShadow_876_805"/>
<feBlend mode="normal" in="SourceGraphic" in2="effect1_dropShadow_876_805" result="shape"/>
</filter>
</defs>
</svg>
