<svg width="70" height="70" viewBox="0 0 70 70" fill="none" xmlns="http://www.w3.org/2000/svg">
<g id="lets-icons:insta-fill">
<path id="Vector" fill-rule="evenodd" clip-rule="evenodd" d="M8.75 32.0833C8.75 21.0846 8.75 15.5837 12.1683 12.1683C15.5867 8.75292 21.0846 8.75 32.0833 8.75H37.9167C48.9154 8.75 54.4162 8.75 57.8317 12.1683C61.2471 15.5867 61.25 21.0846 61.25 32.0833V37.9167C61.25 48.9154 61.25 54.4162 57.8317 57.8317C54.4133 61.2471 48.9154 61.25 37.9167 61.25H32.0833C21.0846 61.25 15.5837 61.25 12.1683 57.8317C8.75292 54.4133 8.75 48.9154 8.75 37.9167V32.0833ZM52.5 21.875C52.5 23.0353 52.0391 24.1481 51.2186 24.9686C50.3981 25.7891 49.2853 26.25 48.125 26.25C46.9647 26.25 45.8519 25.7891 45.0314 24.9686C44.2109 24.1481 43.75 23.0353 43.75 21.875C43.75 20.7147 44.2109 19.6019 45.0314 18.7814C45.8519 17.9609 46.9647 17.5 48.125 17.5C49.2853 17.5 50.3981 17.9609 51.2186 18.7814C52.0391 19.6019 52.5 20.7147 52.5 21.875ZM40.8333 37.9167C40.8333 39.4638 40.2188 40.9475 39.1248 42.0415C38.0308 43.1354 36.5471 43.75 35 43.75C33.4529 43.75 31.9692 43.1354 30.8752 42.0415C29.7812 40.9475 29.1667 39.4638 29.1667 37.9167C29.1667 36.3696 29.7812 34.8858 30.8752 33.7919C31.9692 32.6979 33.4529 32.0833 35 32.0833C36.5471 32.0833 38.0308 32.6979 39.1248 33.7919C40.2188 34.8858 40.8333 36.3696 40.8333 37.9167ZM46.6667 37.9167C46.6667 41.0109 45.4375 43.9783 43.2496 46.1662C41.0617 48.3542 38.0942 49.5833 35 49.5833C31.9058 49.5833 28.9383 48.3542 26.7504 46.1662C24.5625 43.9783 23.3333 41.0109 23.3333 37.9167C23.3333 34.8225 24.5625 31.855 26.7504 29.6671C28.9383 27.4792 31.9058 26.25 35 26.25C38.0942 26.25 41.0617 27.4792 43.2496 29.6671C45.4375 31.855 46.6667 34.8225 46.6667 37.9167Z" fill="white"/>
</g>
</svg>
