<svg width="1595" height="885" viewBox="0 0 1595 885" fill="none" xmlns="http://www.w3.org/2000/svg">
<path d="M191.417 335.894H144.974V400.925C155.465 417.24 162.434 423.966 177.484 428.795H230.894C250.44 421.529 258.026 413.433 265.726 391.635V326.604C264.112 312.591 262.448 307.405 258.759 301.056L191.417 182.607V131.512C192.177 127.888 195.872 125.853 207.672 122.222C215.907 120.735 218.087 123.381 219.283 131.512V173.317H261.082C263.734 172.837 264.649 171.678 265.726 168.672V110.609C254.836 84.6415 246.198 78.887 228.571 75.771L193.739 82.7386C154.566 95.6625 150.588 105.951 144.974 124.544V177.962L144.992 178.201C145.749 188.125 146.181 193.793 149.618 201.187L219.283 326.604V382.344C218.481 385.268 217.704 386.541 214.638 386.989H196.061C193.276 386.153 192.821 385.449 191.417 382.344V335.894Z" fill="#BF1F26"/>
<path d="M330.746 428.795H284.303H281.981V71.1259L330.746 64.1584V217.445L367.901 214.494V57.1908L414.344 52.5457V428.795H367.901V263.896L330.746 266.218V428.795Z" fill="#BF1F26"/>
<path d="M437.566 428.795V47.9007L484.009 38.6106V428.795H437.566Z" fill="#BF1F26"/>
<path d="M1 456.655V442.72H776.601V456.655H1Z" fill="#BF1F26"/>
<path d="M212.316 788.776V472.913H277.337V784.131L321.458 786.454V472.913H391.122V800.389C380.825 828.253 371.67 836.846 347.001 837.549L275.015 830.582C234.935 823.644 220.509 814.67 212.316 788.776Z" fill="#BF1F26"/>
<path d="M625.66 867.742V472.913H774.278V524.008H690.681V649.425H760.345V702.843H690.681V823.614L776.601 830.582V884L625.66 867.742Z" fill="#BF1F26"/>
<path fill-rule="evenodd" clip-rule="evenodd" d="M651.204 428.795V57.1908C657.285 30.3248 664.507 17.4477 697.647 6.0952L732.48 1.45015C759.913 -1.94122 765.823 14.0646 775.968 41.5434C776.177 42.1093 776.388 42.6801 776.601 43.2556V428.795H730.157V261.573L697.647 263.896V428.795H651.204ZM730.157 208.155L697.647 210.477V59.5133L730.157 57.1908V208.155Z" fill="#BF1F26"/>
<path fill-rule="evenodd" clip-rule="evenodd" d="M507.23 428.795H553.673V271.946C568.304 268.137 570.517 275.411 572.251 291.766L590.828 428.795H637.271L614.05 263.896C626.564 247.308 631.298 237.094 630.305 215.123L627.982 61.8358C625.112 34.7009 617.001 26.8819 593.15 24.6754H581.539L507.23 33.9655V428.795ZM553.673 222.09V80.416L579.217 75.771C582.532 75.9924 584.306 76.3356 586.184 80.416L583.862 215.123C583.077 219.112 582.37 221.035 579.217 222.09H553.673Z" fill="#BF1F26"/>
<path fill-rule="evenodd" clip-rule="evenodd" d="M1 514.718C5.10964 487.609 12.2763 475.836 47.4431 470.59H131.041C165.726 478.311 175.505 488.563 179.806 514.718V781.809C173.666 806.259 164.716 813.528 140.329 816.647L49.7653 809.679C23.5215 805.193 11.0751 799.182 1 770.196V514.718ZM68.3426 767.874V514.718H117.108V770.196L68.3426 767.874Z" fill="#BF1F26"/>
<path fill-rule="evenodd" clip-rule="evenodd" d="M421.31 472.913H542.063C579.333 479.536 591.732 488.908 593.15 519.363V670.328C591.212 683.345 588.265 690.811 569.929 705.165L604.761 865.42L537.418 858.452C526.802 813.675 513.115 737.681 513.115 737.681C513.115 737.681 507.546 703.452 486.331 707.488V853.807L421.31 844.517V472.913ZM486.331 658.715V524.008H528.13V658.715H486.331Z" fill="#BF1F26"/>
<path fill-rule="evenodd" clip-rule="evenodd" d="M1 424.15V145.447C9.55619 121.872 21.2873 111.635 66.0204 103.641C101.456 96.8335 114.423 102.585 126.396 126.867V424.15H79.9534V301.056L47.4431 303.379V424.15H1ZM79.9534 261.573L47.4431 263.896V150.092L79.9534 145.447V261.573Z" fill="#BF1F26"/>
<path d="M816.077 837.549C817.913 865.375 827.153 873.043 850.91 879.355L943.796 867.742C970.233 860.574 978.01 851.867 983.273 830.582V753.938L934.507 756.261V832.904L864.843 839.872V510.073H934.507V577.427H983.273V510.073C975.554 483.861 966.382 476.299 943.796 472.913H855.554C830.16 477.705 821.859 486.709 813.755 510.073L816.077 837.549Z" fill="#EFEFEF"/>
<path fill-rule="evenodd" clip-rule="evenodd" d="M813.755 428.795L811.433 6.08488L815.455 6.41898C882.436 11.9767 921.199 15.193 927.541 61.8257V189.565C925.183 199.868 922.07 205.18 908.964 212.79C918.256 217.468 925.128 223.694 927.541 233.693V396.269C922.393 413.424 916.104 420.398 899.675 428.795H813.755ZM883.42 57.1806L848.587 52.5356V189.565L892.708 194.21V68.7933C892.098 62.7573 890.346 60.1366 883.42 57.1806ZM848.587 384.657V226.725L895.031 233.693V380.012C894.968 383.243 894.528 384.427 892.708 384.657H848.587Z" fill="#EFEFEF"/>
<path fill-rule="evenodd" clip-rule="evenodd" d="M994.883 428.795C975.37 420.805 967.715 413.131 964.695 389.302V61.8257C964.912 60.6498 965.114 59.4973 965.312 58.3701C967.875 43.765 969.693 33.4094 992.561 31.6329C1017.19 29.7192 1045.97 38.6004 1045.97 38.6004C1048.42 39.1181 1081.73 57.1762 1080.8 80.4059V389.302C1075.42 411.408 1070.47 421.771 1050.62 428.795H994.883ZM999.528 389.302L1045.97 391.624V73.4383L999.528 69.1123V389.302Z" fill="#EFEFEF"/>
<path d="M1090.09 426.462L1143.5 233.693L1097.06 47.8905L1131.89 50.2131L1162.08 180.275L1194.59 59.5032L1229.42 64.1482L1178.33 238.338L1227.1 426.462H1192.27L1159.76 294.078L1127.25 426.462H1090.09Z" fill="#EFEFEF"/>
<path d="M1245.68 426.462V66.4707L1280.51 71.1158V426.462H1245.68Z" fill="#EFEFEF"/>
<path d="M1317.66 78.0834L1352.5 80.4059L1354.82 96.6636C1359.4 86.6235 1361.37 87.42 1373.4 85.051H1396.62C1429.82 93.7129 1431.81 107.9 1438.42 131.501V426.462H1401.26V131.501C1400.73 117.174 1381.75 118.115 1352.5 117.566V426.462H1317.66V78.0834Z" fill="#EFEFEF"/>
<path d="M1503.44 426.462C1485.39 420.493 1476.95 415.281 1473.25 393.947V131.501C1476.66 110.294 1481.94 102.66 1501.11 101.309L1554.52 108.276C1576.9 115.319 1582.13 124.726 1589.36 143.114V194.21L1556.85 191.887V145.437C1556.67 133.801 1540.21 132.633 1508.08 131.501V391.624C1508.64 394.701 1509.55 395.82 1512.72 396.269H1559.17V296.401H1535.95V266.208H1589.36V400.915C1584.2 419.055 1576.83 423.754 1559.17 426.462H1503.44Z" fill="#EFEFEF"/>
<path d="M813.755 442.72V456.655H1594V442.72H813.755Z" fill="#EFEFEF"/>
<path d="M1032.04 475.235V856.13L1162.08 844.517V807.357L1083.13 816.647V475.235H1032.04Z" fill="#EFEFEF"/>
<path d="M1199.23 475.235V805.034C1204.32 824.379 1211.53 829.588 1229.42 832.904L1333.92 823.614C1354.73 816.605 1361.94 808.039 1368.75 786.454V475.235H1317.66V791.099L1248 798.067V475.235H1199.23Z" fill="#EFEFEF"/>
<path fill-rule="evenodd" clip-rule="evenodd" d="M1424.48 475.235V814.324L1554.52 802.712L1555.92 802.108C1577.45 792.839 1589.94 787.459 1591.68 760.906L1594 654.07C1592.74 642.281 1584.05 637.743 1563.81 630.845C1583.02 622.439 1586.32 617.891 1587.03 609.942V507.751C1583.69 487.813 1575.24 480.731 1549.88 475.235H1424.48ZM1473.25 619.232V507.751L1538.27 506.483V616.909L1473.25 619.232ZM1473.25 779.486V651.747V649.425L1542.91 647.102V774.841L1473.25 779.486Z" fill="#EFEFEF"/>
<path d="M144.974 177.962V124.544C150.588 105.951 154.566 95.6625 193.739 82.7386L228.571 75.771C246.198 78.887 254.836 84.6415 265.726 110.609V168.672C264.649 171.678 263.734 172.837 261.082 173.317H219.283V131.512C218.087 123.381 215.907 120.735 207.672 122.222C195.872 125.853 192.177 127.888 191.417 131.512V182.607L258.759 301.056C262.448 307.405 264.112 312.591 265.726 326.604V391.635C258.026 413.433 250.44 421.529 230.894 428.795H177.484C162.434 423.966 155.465 417.239 144.974 400.925V335.894H191.417V382.344C192.821 385.449 193.276 386.153 196.061 386.989H214.638C217.704 386.541 218.481 385.268 219.283 382.344V326.604L149.618 201.187C146.181 193.793 145.749 188.125 144.992 178.201M144.974 177.962L144.992 178.201M144.974 177.962C144.98 178.042 144.986 178.121 144.992 178.201M811.433 6.08488L813.755 428.795H899.675C916.104 420.398 922.393 413.424 927.541 396.269V233.693C925.128 223.694 918.256 217.468 908.964 212.79C922.07 205.18 925.183 199.868 927.541 189.565V61.8257C921.199 15.193 882.436 11.9767 815.455 6.41898M811.433 6.08488C812.785 6.19741 814.125 6.30866 815.455 6.41898M811.433 6.08488L815.455 6.41898M1554.52 802.712L1424.48 814.324V475.235H1549.88C1575.24 480.731 1583.69 487.813 1587.03 507.751V609.942C1586.32 617.891 1583.02 622.439 1563.81 630.845C1584.05 637.743 1592.74 642.281 1594 654.07L1591.68 760.906C1589.94 787.459 1577.45 792.839 1555.92 802.108M1554.52 802.712L1555.92 802.108M1554.52 802.712C1554.99 802.508 1555.46 802.307 1555.92 802.108M1 424.15V145.447C9.55619 121.872 21.2873 111.635 66.0204 103.641C101.456 96.8335 114.423 102.585 126.396 126.867V424.15H79.9534V301.056L47.4431 303.379V424.15H1ZM47.4431 263.896L79.9534 261.573V145.447L47.4431 150.092V263.896ZM284.303 428.795H330.746V266.218L367.901 263.896V428.795H414.344V52.5457L367.901 57.1908V214.494L330.746 217.445V64.1584L281.981 71.1259V428.795H284.303ZM437.566 47.9007V428.795H484.009V38.6106L437.566 47.9007ZM507.23 428.795H553.673V271.946C568.304 268.137 570.517 275.411 572.251 291.766L590.828 428.795H637.271L614.05 263.896C626.564 247.308 631.298 237.094 630.305 215.123L627.982 61.8358C625.112 34.7009 617.001 26.8819 593.15 24.6754H581.539L507.23 33.9655V428.795ZM553.673 80.416V222.09H579.217C582.37 221.035 583.077 219.112 583.862 215.123L586.184 80.416C584.306 76.3356 582.532 75.9924 579.217 75.771L553.673 80.416ZM651.204 428.795V57.1908C657.285 30.3248 664.507 17.4477 697.647 6.0952L732.48 1.45015C759.913 -1.94122 765.823 14.0646 775.968 41.5434C776.177 42.1093 776.388 42.6801 776.601 43.2556V428.795H730.157V261.573L697.647 263.896V428.795H651.204ZM697.647 210.477L730.157 208.155V57.1908L697.647 59.5133V210.477ZM848.587 52.5356L883.42 57.1806C890.346 60.1366 892.098 62.7573 892.708 68.7933V194.21L848.587 189.565V52.5356ZM848.587 226.725V384.657H892.708C894.528 384.427 894.968 383.243 895.031 380.012V233.693L848.587 226.725ZM994.883 428.795C975.37 420.805 967.715 413.131 964.695 389.302V61.8257C964.912 60.6498 965.114 59.4973 965.312 58.3701C967.875 43.765 969.693 33.4094 992.561 31.6329C1017.19 29.7192 1045.97 38.6004 1045.97 38.6004C1048.42 39.1181 1081.73 57.1762 1080.8 80.4059V389.302C1075.42 411.408 1070.47 421.771 1050.62 428.795H994.883ZM1045.97 391.624L999.528 389.302V69.1123L1045.97 73.4383V391.624ZM1090.09 426.462L1143.5 233.693L1097.06 47.8905L1131.89 50.2131L1162.08 180.275L1194.59 59.5032L1229.42 64.1482L1178.33 238.338L1227.1 426.462H1192.27L1159.76 294.078L1127.25 426.462H1090.09ZM1245.68 426.462V66.4707L1280.51 71.1158V426.462H1245.68ZM1317.66 78.0834L1352.5 80.4059L1354.82 96.6636C1359.4 86.6235 1361.37 87.42 1373.4 85.051H1396.62C1429.82 93.7129 1431.81 107.9 1438.42 131.501V426.462H1401.26V131.501C1400.73 117.174 1381.75 118.115 1352.5 117.566V426.462H1317.66V78.0834ZM1503.44 426.462C1485.39 420.493 1476.95 415.281 1473.25 393.947V131.501C1476.66 110.294 1481.94 102.66 1501.11 101.309L1554.52 108.276C1576.9 115.319 1582.13 124.726 1589.36 143.114V194.21L1556.85 191.887V145.437C1556.67 133.801 1540.21 132.633 1508.08 131.501V391.624C1508.64 394.701 1509.55 395.82 1512.72 396.269H1559.17V296.401H1535.95V266.208H1589.36V400.915C1584.2 419.055 1576.83 423.754 1559.17 426.462H1503.44ZM1 442.72V456.655H776.601V442.72H1ZM813.755 442.72V456.655H1594V442.72H813.755ZM1 514.718C5.10964 487.609 12.2763 475.836 47.4431 470.59H131.041C165.726 478.311 175.505 488.563 179.806 514.718V781.809C173.666 806.259 164.716 813.528 140.329 816.647L49.7653 809.679C23.5215 805.193 11.0751 799.182 1 770.196V514.718ZM68.3426 514.718V767.874L117.108 770.196V514.718H68.3426ZM212.316 472.913V788.776C220.509 814.67 234.935 823.644 275.015 830.582L347.001 837.549C371.67 836.846 380.825 828.252 391.122 800.389V472.913H321.458V786.454L277.337 784.131V472.913H212.316ZM421.31 472.913H542.063C579.334 479.536 591.732 488.908 593.15 519.363V670.328C591.212 683.345 588.265 690.811 569.929 705.165L604.761 865.42L537.418 858.452C526.802 813.675 513.115 737.681 513.115 737.681C513.115 737.681 507.546 703.452 486.331 707.488V853.807L421.31 844.517V472.913ZM486.331 524.008V658.715H528.13V524.008H486.331ZM625.66 472.913V867.742L776.601 884V830.582L690.681 823.614V702.843H760.345V649.425H690.681V524.008H774.278V472.913H625.66ZM816.077 837.549C817.913 865.375 827.153 873.043 850.91 879.355L943.796 867.742C970.233 860.574 978.01 851.866 983.273 830.582V753.938L934.507 756.261V832.904L864.843 839.872V510.073H934.507V577.427H983.273V510.073C975.554 483.861 966.382 476.299 943.796 472.913H855.554C830.16 477.705 821.859 486.709 813.755 510.073L816.077 837.549ZM1032.04 475.235V856.13L1162.08 844.517V807.357L1083.13 816.647V475.235H1032.04ZM1199.23 475.235V805.034C1204.32 824.379 1211.53 829.588 1229.42 832.904L1333.92 823.614C1354.73 816.605 1361.94 808.039 1368.75 786.454V475.235H1317.66V791.099L1248 798.067V475.235H1199.23ZM1473.25 507.751V619.232L1538.27 616.909V506.483L1473.25 507.751ZM1473.25 651.747V779.486L1542.91 774.841V647.102L1473.25 649.425V651.747Z" stroke="black"/>
</svg>
