<svg width="100" height="55" viewBox="0 0 100 55" fill="none" xmlns="http://www.w3.org/2000/svg">
<path d="M51.1662 52.1067C51.2814 53.8399 51.8615 54.3175 53.3528 54.7107L59.1837 53.9873C60.8433 53.5409 61.3314 52.9985 61.6618 51.6727V46.8988L58.6006 47.0434V51.8174L54.2274 52.2514V31.709H58.6006V35.9043H61.6618V31.709C61.1772 30.0763 60.6015 29.6053 59.1837 29.3943H53.6443C52.0502 29.6928 51.5291 30.2537 51.0204 31.709L51.1662 52.1067Z" fill="#F8F9FA"/>
<path fill-rule="evenodd" clip-rule="evenodd" d="M51.0204 26.6463L50.8746 0.316725L51.1271 0.337536C55.3318 0.683713 57.7651 0.884047 58.1633 3.78869V11.7452C58.0152 12.387 57.8199 12.7179 56.9971 13.1919C57.5804 13.4833 58.0118 13.8711 58.1633 14.4939V24.6204C57.8401 25.6889 57.4453 26.1233 56.414 26.6463H51.0204ZM55.3936 3.49936L53.207 3.21003V11.7452L55.9767 12.0346V4.22268C55.9383 3.84672 55.8284 3.68348 55.3936 3.49936ZM53.207 23.8971V14.0599L56.1224 14.4939V23.6078C56.1185 23.809 56.0909 23.8828 55.9767 23.8971H53.207Z" fill="#F8F9FA"/>
<path fill-rule="evenodd" clip-rule="evenodd" d="M62.3907 26.6463C61.1657 26.1487 60.6852 25.6707 60.4956 24.1864V3.78869C60.5092 3.71545 60.5219 3.64366 60.5343 3.57345C60.6952 2.66373 60.8093 2.0187 62.2449 1.90805C63.7913 1.78885 65.5977 2.34204 65.5977 2.34204C65.7511 2.37429 67.8423 3.49908 67.7843 4.94601V24.1864C67.4464 25.5634 67.1353 26.2088 65.8892 26.6463H62.3907ZM62.6822 24.1864L65.5977 24.3311V4.51201L62.6822 4.24256V24.1864Z" fill="#F8F9FA"/>
<path d="M68.3673 26.501L71.7201 14.4939L68.8047 2.9207L70.9912 3.06537L72.8863 11.1666L74.9271 3.64403L77.1137 3.93335L73.9067 14.7832L76.9679 26.501H74.7813L72.7405 18.2552L70.6997 26.501H68.3673Z" fill="#F8F9FA"/>
<path d="M78.1341 26.501V4.07802L80.3207 4.36735V26.501H78.1341Z" fill="#F8F9FA"/>
<path d="M82.6531 4.80134L84.8396 4.94601L84.9854 5.95866C85.273 5.33329 85.3969 5.3829 86.1516 5.23534H87.6093C89.6934 5.77487 89.8183 6.65853 90.2332 8.12863V26.501H87.9009V8.12863C87.8676 7.23622 86.6758 7.29481 84.8396 7.26064V26.501H82.6531V4.80134Z" fill="#F8F9FA"/>
<path d="M94.3149 26.501C93.1819 26.1292 92.6524 25.8046 92.4198 24.4757V8.12863C92.6343 6.80765 92.9656 6.33216 94.1691 6.24799L97.5219 6.68198C98.9266 7.12067 99.2551 7.70659 99.7084 8.85195V12.0346L97.6676 11.8899V8.99662C97.6569 8.27185 96.6233 8.1991 94.6064 8.12863V24.3311C94.6415 24.5227 94.699 24.5924 94.898 24.6204H97.8134V18.3998H96.3557V16.5192H99.7084V24.9097C99.3847 26.0397 98.9221 26.3324 97.8134 26.501H94.3149Z" fill="#F8F9FA"/>
<path d="M51.0204 27.5137V28.3817H100V27.5137H51.0204Z" fill="#F8F9FA"/>
<path d="M64.723 29.539V53.264L72.8863 52.5407V50.2261L67.93 50.8047V29.539H64.723Z" fill="#F8F9FA"/>
<path d="M75.2186 29.539V50.0814C75.5379 51.2864 75.9908 51.6108 77.1137 51.8174L83.6735 51.2387C84.98 50.8022 85.4328 50.2685 85.8601 48.9241V29.539H82.6531V49.2134L78.2799 49.6474V29.539H75.2186Z" fill="#F8F9FA"/>
<path fill-rule="evenodd" clip-rule="evenodd" d="M89.3586 29.539V50.6601L97.5219 49.9367L97.6098 49.8991C98.9608 49.3218 99.745 48.9867 99.8542 47.3328L100 40.6782C99.9212 39.9439 99.3753 39.6613 98.1049 39.2315C99.3107 38.708 99.5176 38.4247 99.5627 37.9296V31.5643C99.3529 30.3224 98.8221 29.8813 97.2303 29.539H89.3586ZM92.4198 38.5082V31.5643L96.5015 31.4854V38.3636L92.4198 38.5082ZM92.4198 48.4901V40.5335V40.3889L96.793 40.2442V48.2008L92.4198 48.4901Z" fill="#F8F9FA"/>
<path d="M39.2128 29.3943V53.9873L48.688 55V51.6727L43.2945 51.2387V43.7162H47.6676V40.3889H43.2945V32.577H48.5423V29.3943H39.2128Z" fill="#181818"/>
<path fill-rule="evenodd" clip-rule="evenodd" d="M26.3848 29.3943H33.965C36.3047 29.8069 37.083 30.3907 37.172 32.2876V41.6908C37.0504 42.5016 36.8654 42.9667 35.7143 43.8608L37.9009 53.8427L33.6735 53.4087C33.007 50.6196 32.1478 45.8861 32.1478 45.8861C32.1478 45.8861 31.7983 43.7541 30.4665 44.0055V53.1194L26.3848 52.5407V29.3943ZM30.4665 40.9675V32.577H33.0904V40.9675H30.4665Z" fill="#181818"/>
<path d="M13.2653 29.3943V49.0687C13.7796 50.6816 14.6852 51.2406 17.2012 51.6727L21.7201 52.1067C23.2687 52.0629 23.8434 51.5276 24.4898 49.7921V29.3943H20.1166V48.9241L17.3469 48.7794V29.3943H13.2653Z" fill="#181818"/>
<path fill-rule="evenodd" clip-rule="evenodd" d="M0 31.9983C0.257981 30.3097 0.707863 29.5764 2.91545 29.2497H8.16326C10.3406 29.7306 10.9545 30.3692 11.2245 31.9983V48.6348C10.839 50.1577 10.2772 50.6105 8.74635 50.8047L3.06122 50.3707C1.41378 50.0913 0.632458 49.7169 0 47.9114V31.9983ZM4.22741 47.7668V31.9983H7.28863V47.9114L4.22741 47.7668Z" fill="#181818"/>
<path fill-rule="evenodd" clip-rule="evenodd" d="M0 26.357V8.99725C0.537112 7.52886 1.27353 6.89119 4.08163 6.39329C6.30612 5.96924 7.12008 6.32748 7.87172 7.83993V26.357H4.95627V18.6898L2.91545 18.8344V26.357H0ZM4.95627 16.2305L2.91545 16.3751V9.28658L4.95627 8.99725V16.2305Z" fill="#181818"/>
<path d="M9.0379 20.8598H11.9534V23.753C12.0415 23.9464 12.0701 23.9902 12.2449 24.0424H13.4111C13.6035 24.0145 13.6523 23.9351 13.7026 23.753V20.2811L9.32945 12.4692C9.11367 12.0086 9.08654 11.6556 9.03904 11.0374L9.0379 11.0226V7.69527C9.39035 6.53714 9.64002 5.89631 12.0991 5.0913L14.2857 4.65731C15.3922 4.8514 15.9344 5.20983 16.6181 6.82728V10.4439C16.5505 10.6311 16.493 10.7033 16.3265 10.7332H13.7026V8.12926C13.6275 7.62284 13.4907 7.458 12.9738 7.5506C12.233 7.77678 12.0011 7.90352 11.9534 8.12926V11.3119L16.1808 18.6898C16.4123 19.0853 16.5167 19.4083 16.6181 20.2811V24.3317C16.1347 25.6895 15.6585 26.1938 14.4315 26.6463H11.0787C10.1339 26.3456 9.69648 25.9266 9.0379 24.9104V20.8598Z" fill="#181818"/>
<path d="M17.7843 26.6463H20.6997V16.5198L23.0321 16.3751V26.6463H25.9475V3.21066L23.0321 3.49999V13.298L20.6997 13.4819V3.93399L17.6385 4.36798V26.6463H17.7843Z" fill="#181818"/>
<path d="M27.4052 2.92133V26.6463H30.3207V2.34267L27.4052 2.92133Z" fill="#181818"/>
<path fill-rule="evenodd" clip-rule="evenodd" d="M31.7784 26.6463H34.6939V16.8766C35.6123 16.6393 35.7512 17.0924 35.8601 18.1111L37.0262 26.6463H39.9417L38.484 16.3751C39.2696 15.3419 39.5667 14.7058 39.5044 13.3372L39.3586 3.78932C39.1784 2.09915 38.6692 1.61212 37.172 1.47469H36.4431L31.7784 2.05334V26.6463ZM34.6939 13.7712V4.94664L36.2974 4.65731C36.5055 4.6711 36.6168 4.69248 36.7347 4.94664L36.5889 13.3372C36.5397 13.5857 36.4953 13.7054 36.2974 13.7712H34.6939Z" fill="#181818"/>
<path fill-rule="evenodd" clip-rule="evenodd" d="M40.8163 26.6463V3.49999C41.1981 1.82657 41.6514 1.02449 43.7318 0.317368L45.9184 0.0280385C47.6405 -0.183202 48.0115 0.813766 48.6483 2.52535C48.6615 2.5606 48.6747 2.59615 48.688 2.632V26.6463H45.7726V16.2305L43.7318 16.3751V26.6463H40.8163ZM45.7726 12.9032L43.7318 13.0479V3.64466L45.7726 3.49999V12.9032Z" fill="#181818"/>
<path d="M0 27.5137V28.3817H48.688V27.5137H0Z" fill="#181818"/>
</svg>
